<?xml version="1.0" standalone="no"?>
<!DOCTYPE svg PUBLIC "-//W3C//DTD SVG 1.1//EN" "http://www.w3.org/Graphics/SVG/1.1/DTD/svg11.dtd">
<svg xmlns="http://www.w3.org/2000/svg" width="119" height="31" viewBox="0 0 119 31" fill="none"><path d="M50.6499 29.7545V26.5844L63.8234 10.624L64.7422 12.346H50.8872V8.33614H68.746V11.5063L55.5725 27.4667L54.5746 25.7447H69.105V29.7545H50.6499Z" fill="black"/><path d="M82.4367 30.0405C80.0637 30.0405 77.9888 29.5659 76.212 28.6167C74.4353 27.6675 73.0601 26.3653 72.0866 24.7042C71.113 23.0491 70.6262 21.1628 70.6262 19.0514C70.6262 16.94 71.1008 15.0233 72.05 13.3743C72.9993 11.7314 74.3075 10.4415 75.9747 9.50441C77.6419 8.56736 79.5465 8.09883 81.6822 8.09883C83.818 8.09883 85.6191 8.55519 87.2498 9.46182C88.8805 10.3684 90.1583 11.6523 91.0954 13.3135C92.0263 14.9685 92.4949 16.9217 92.4949 19.167C92.4949 19.38 92.4888 19.6234 92.4766 19.8911C92.4644 20.1588 92.4401 20.4144 92.4158 20.6517H74.5996V17.3233H89.775L87.8157 18.3638C87.84 17.1347 87.5905 16.0516 87.0551 15.1146C86.5196 14.1775 85.7955 13.4413 84.8707 12.9058C83.9519 12.3703 82.887 12.1026 81.6883 12.1026C80.4896 12.1026 79.3883 12.3703 78.4634 12.9058C77.5446 13.4413 76.8205 14.1836 76.3033 15.1328C75.78 16.082 75.5244 17.1956 75.5244 18.4795V19.2826C75.5244 20.5665 75.8165 21.7044 76.4067 22.6901C76.9909 23.6819 77.8184 24.4425 78.8893 24.978C79.9542 25.5134 81.1833 25.7812 82.5706 25.7812C83.7693 25.7812 84.8524 25.5925 85.8138 25.2214C86.7752 24.8502 87.6271 24.26 88.3755 23.4568L91.0589 26.5479C90.0975 27.6735 88.8927 28.5315 87.4384 29.1339C85.9842 29.7363 84.323 30.0344 82.455 30.0344L82.4367 30.0405Z" fill="black"/><path d="M96.2918 29.7545V0H101.293V13.3135L100.892 19.0088L101.05 24.7042V29.7545H96.2857H96.2918ZM108.145 30.0344C106.332 30.0344 104.713 29.6328 103.301 28.8296C101.884 28.0265 100.77 26.8156 99.9609 25.2031C99.1455 23.5846 98.7378 21.534 98.7378 19.0453C98.7378 16.5567 99.1577 14.4757 99.9974 12.8693C100.837 11.2629 101.975 10.0703 103.399 9.27927C104.829 8.48825 106.411 8.09883 108.145 8.09883C110.25 8.09883 112.112 8.55519 113.731 9.46182C115.343 10.3684 116.627 11.6402 117.576 13.2709C118.526 14.9016 119 16.8244 119 19.0453C119 21.2663 118.526 23.1891 117.576 24.8198C116.627 26.4505 115.349 27.7283 113.731 28.6471C112.118 29.572 110.256 30.0283 108.145 30.0283V30.0344ZM107.585 25.7447C108.784 25.7447 109.861 25.4769 110.81 24.9415C111.759 24.406 112.514 23.6332 113.074 22.6171C113.633 21.6009 113.913 20.4083 113.913 19.0453C113.913 17.6823 113.633 16.4593 113.074 15.4553C112.514 14.4513 111.759 13.6846 110.81 13.1492C109.861 12.6137 108.79 12.346 107.585 12.346C106.38 12.346 105.303 12.6137 104.342 13.1492C103.381 13.6846 102.62 14.4513 102.06 15.4553C101.5 16.4593 101.22 17.6519 101.22 19.0453C101.22 20.4387 101.5 21.6009 102.06 22.6171C102.62 23.6332 103.381 24.406 104.342 24.9415C105.303 25.4769 106.386 25.7447 107.585 25.7447Z" fill="black"/><path d="M16.9096 0C16.9217 0 16.9339 0 16.94 0C16.94 0 16.94 0 16.9461 0C18.0474 0.0304239 18.9906 0.681494 19.4348 1.61855L23.0065 7.81285L26.5844 1.60638C26.5844 1.60638 26.5904 1.59421 26.5965 1.58204C26.5965 1.58204 26.5965 1.57596 26.6026 1.56987C26.6026 1.56987 26.6026 1.5577 26.6087 1.5577C26.6087 1.5577 26.6087 1.55162 26.6148 1.54553C26.6148 1.53945 26.6209 1.53336 26.627 1.52119C26.627 1.52119 26.627 1.51511 26.633 1.50902C26.633 1.50902 26.633 1.50294 26.6391 1.49685C26.6391 1.49685 26.6391 1.49077 26.6452 1.48468C26.6452 1.4786 26.6513 1.47251 26.6574 1.46643C26.6574 1.46643 26.6574 1.46035 26.6635 1.45426C26.6635 1.45426 26.6635 1.44818 26.6695 1.44209C26.6695 1.44209 26.6695 1.43601 26.6756 1.42992C26.6756 1.42992 26.6817 1.41775 26.6878 1.41167C26.6878 1.41167 26.6939 1.3995 26.7 1.39341C26.7 1.39341 26.7 1.38733 26.7061 1.38124C26.7061 1.38124 26.7061 1.37516 26.7121 1.36907C26.7121 1.36907 26.7121 1.3569 26.7182 1.3569C26.7182 1.35082 26.7243 1.34473 26.7304 1.33865C26.7304 1.33865 26.7304 1.33256 26.7365 1.32648C26.7365 1.32648 26.7365 1.3204 26.7426 1.31431C26.7426 1.31431 26.7426 1.30823 26.7487 1.30214C26.7487 1.29606 26.7547 1.28997 26.7608 1.28389C26.7608 1.28389 26.7669 1.27172 26.773 1.27172C26.773 1.27172 26.773 1.26563 26.7791 1.25955C26.7791 1.25955 26.7791 1.25346 26.7852 1.24738C26.7852 1.24738 26.7912 1.23521 26.7973 1.22912C26.7973 1.22912 26.8034 1.21695 26.8095 1.21087C26.8095 1.21087 26.8095 1.20478 26.8156 1.1987C26.8156 1.1987 26.8156 1.19262 26.8217 1.18653C26.8217 1.18653 26.8217 1.18045 26.8278 1.17436C26.8278 1.16828 26.8399 1.16219 26.8399 1.15611C26.8399 1.15611 26.846 1.15002 26.8521 1.14394C26.8521 1.14394 26.8521 1.13785 26.8582 1.13177C26.8582 1.13177 26.8643 1.12568 26.8703 1.1196C26.8703 1.1196 26.8825 1.10743 26.8825 1.10134C26.8825 1.10134 26.8886 1.09526 26.8947 1.08917C26.8947 1.08917 26.8947 1.08309 26.9008 1.077C26.9008 1.077 26.9069 1.07092 26.9129 1.06483C26.9129 1.06483 26.919 1.05875 26.9251 1.05267C26.9251 1.04658 26.9373 1.0405 26.9434 1.03441C26.9434 1.03441 26.9434 1.02833 26.9494 1.02224C26.9494 1.02224 26.9555 1.01616 26.9616 1.01007C26.9616 1.01007 26.9616 1.00399 26.9677 0.997902C26.9677 0.991818 26.9799 0.985733 26.986 0.979648C26.986 0.979648 26.986 0.973563 26.992 0.967479C26.992 0.967479 26.9981 0.961394 27.0042 0.955309C27.0042 0.955309 27.0042 0.949224 27.0103 0.943139C27.0103 0.937055 27.0225 0.93097 27.0285 0.924885C27.0285 0.924885 27.0286 0.9188 27.0346 0.912716C27.0346 0.912716 27.0407 0.906631 27.0468 0.900546C27.0468 0.900546 27.0468 0.900546 27.0529 0.894461C27.059 0.888377 27.0651 0.882292 27.0711 0.876207C27.0711 0.876207 27.0711 0.876207 27.0772 0.870122C27.0772 0.870122 27.0833 0.864037 27.0894 0.857953C27.0894 0.857953 27.0894 0.857953 27.0955 0.851868C27.1016 0.845783 27.1077 0.839698 27.1137 0.833614C27.1137 0.833614 27.1137 0.833614 27.1198 0.827529C27.1198 0.827529 27.1259 0.821444 27.132 0.815359C27.132 0.815359 27.132 0.815359 27.1381 0.809275C27.1381 0.809275 27.1442 0.80319 27.1502 0.797105C27.1563 0.79102 27.1685 0.778851 27.1746 0.772766C27.1746 0.772766 27.1746 0.772766 27.1807 0.766681C27.1807 0.766681 27.1868 0.760596 27.1928 0.754512C27.1928 0.754512 27.1928 0.754512 27.1989 0.754512C27.205 0.748427 27.2172 0.742342 27.2233 0.730173C27.2233 0.730173 27.2233 0.730173 27.2293 0.724088C27.2293 0.724088 27.2354 0.718003 27.2415 0.711918C27.2415 0.711918 27.2415 0.711918 27.2476 0.711918C27.2537 0.705833 27.2659 0.699749 27.2719 0.693664C27.2719 0.693664 27.2719 0.693664 27.278 0.693664C27.278 0.693664 27.2902 0.687579 27.2902 0.681494C27.2902 0.681494 27.2902 0.681494 27.2963 0.681494C27.3024 0.67541 27.3145 0.669325 27.3206 0.66324C27.3206 0.66324 27.3206 0.66324 27.3267 0.66324C27.3267 0.66324 27.3389 0.657155 27.3389 0.651071C27.3389 0.651071 27.3389 0.651071 27.345 0.651071C27.3571 0.644986 27.3632 0.638901 27.3754 0.626731C27.3754 0.626731 27.3876 0.620647 27.3936 0.614562C27.3936 0.614562 27.3936 0.614562 27.3997 0.614562C27.418 0.602392 27.4301 0.590223 27.4484 0.578053C27.4484 0.578053 27.4484 0.578053 27.4545 0.578053C27.4727 0.565884 27.491 0.553714 27.5032 0.541545C27.5214 0.529375 27.5397 0.517206 27.5579 0.505036C27.5579 0.505036 27.5701 0.498951 27.5762 0.492866C27.5884 0.486782 27.6005 0.480697 27.6127 0.468527C27.6188 0.468527 27.6249 0.462443 27.6309 0.456358C27.6431 0.450273 27.6553 0.444188 27.6675 0.438104C27.6735 0.438104 27.6796 0.432019 27.6857 0.425934C27.704 0.413764 27.7222 0.40768 27.7466 0.39551C27.7648 0.383341 27.7831 0.377256 27.8074 0.365086C27.8257 0.352917 27.85 0.346832 27.8682 0.334662C27.8865 0.322493 27.9108 0.316408 27.9291 0.304239C27.9474 0.298154 27.9717 0.285984 27.9899 0.279899C28.063 0.249476 28.136 0.225137 28.2151 0.200797C28.2394 0.194713 28.2577 0.188628 28.282 0.182543C28.3064 0.176458 28.3307 0.170374 28.3489 0.164289C28.495 0.12778 28.6471 0.103441 28.8053 0.0912716C28.8053 0.0912716 28.854 0.0912716 28.8783 0.0912716C28.8783 0.0912716 28.9027 0.0912716 28.9148 0.0912716C28.9148 0.0912716 28.9392 0.0912716 28.9513 0.0912716C28.9513 0.0912716 28.9757 0.0912716 28.9878 0.0912716C29 0.0912716 29.0122 0.0912716 29.0244 0.0912716C29.0244 0.0912716 29.0304 0.0912716 29.0365 0.0912716H16.7696C16.7696 0.0912716 16.794 0.0912716 16.8061 0.0912716L16.9096 0Z" fill="#717D7A"/><path d="M33.7218 26.846C33.667 26.4079 33.5149 26.0063 33.2898 25.6534L19.4408 1.61855C18.9906 0.681494 18.0474 0.0304239 16.9522 0C16.9522 0 16.9522 0 16.9461 0C16.9339 0 16.9217 0 16.9157 0C16.9157 0 16.8913 0 16.8792 0C16.8792 0 16.8731 0 16.867 0C16.8183 0 16.7696 0 16.7209 0C15.6622 0.0608477 14.7617 0.699749 14.3236 1.60638L0.456358 25.6473C0.212967 26.0185 0.0608477 26.4505 0.0121695 26.919C0.0121695 26.919 0.0121695 26.9251 0.0121695 26.9312C0.0121695 26.9312 0.0121695 26.9434 0.0121695 26.9495C0.00608477 27.0346 0 27.1198 0 27.1989C0 27.1989 0 27.205 0 27.2111V27.2233C0.00608477 28.1116 0.419849 28.9027 1.06483 29.4199C1.47251 29.7484 1.97755 29.9736 2.54952 30.0283C2.5556 30.0283 2.56777 30.0283 2.57386 30.0283C2.65296 30.0344 2.73206 30.0405 2.81116 30.0405C2.81116 30.0405 2.82333 30.0405 2.82942 30.0405C2.82942 30.0405 2.82942 30.0405 2.8355 30.0405H30.8924C30.8924 30.0405 30.8985 30.0405 30.9046 30.0405H30.9167C30.9897 30.0405 31.0628 30.0405 31.1358 30.0283C31.1358 30.0283 31.1419 30.0283 31.1479 30.0283C31.7382 29.9736 32.2615 29.7424 32.6813 29.4016C33.2959 28.8966 33.6975 28.1421 33.7279 27.2902C33.7279 27.1442 33.7279 26.992 33.7096 26.8399L33.7218 26.846Z" fill="#3B4240"/><path d="M45.9948 26.846C45.94 26.4079 45.7879 26.0063 45.5628 25.6534L31.7077 1.61855C31.2696 0.699749 30.3569 0.0547629 29.2921 0C29.286 0 29.2738 0 29.2617 0H29.2495C29.2495 0 29.2312 0 29.2191 0C29.2191 0 29.2191 0 29.213 0C29.213 0 29.2069 0 29.2008 0C29.1947 0 29.1826 0 29.1765 0C29.1643 0 29.1521 0 29.14 0C29.14 0 29.1339 0 29.1278 0C29.1278 0 29.1035 0 29.0913 0C29.0791 0 29.0669 0 29.0548 0C29.0548 0 29.0304 0 29.0183 0C29.0183 0 28.9939 0 28.9818 0C28.9574 0 28.9331 0 28.9087 0C28.7505 0.0121695 28.5984 0.0365086 28.4524 0.0730173C28.428 0.0730173 28.4037 0.0851868 28.3855 0.0912716C28.3611 0.0973563 28.3368 0.103441 28.3185 0.109526C28.2455 0.133865 28.1664 0.158204 28.0934 0.188628C28.069 0.194713 28.0508 0.206882 28.0325 0.212967C28.0143 0.219052 27.9899 0.231221 27.9717 0.243391C27.9534 0.25556 27.9291 0.261645 27.9108 0.273815C27.8926 0.285984 27.8682 0.292069 27.85 0.304239C27.8317 0.316408 27.8135 0.322493 27.7891 0.334662C27.7831 0.334662 27.777 0.340747 27.7709 0.346832C27.7709 0.346832 27.7466 0.365086 27.7344 0.371171C27.7283 0.371171 27.7222 0.377256 27.7161 0.383341C27.704 0.389425 27.6918 0.39551 27.6796 0.40768C27.6796 0.40768 27.6675 0.413764 27.6614 0.419849C27.6431 0.432019 27.6249 0.444188 27.6066 0.456358C27.5883 0.468527 27.5701 0.480697 27.5579 0.492866C27.5579 0.492866 27.5579 0.492866 27.5518 0.492866C27.5336 0.505036 27.5214 0.517206 27.5032 0.529375C27.5032 0.529375 27.5032 0.529375 27.4971 0.529375C27.4971 0.529375 27.4849 0.53546 27.4788 0.541545C27.4667 0.547629 27.4606 0.553714 27.4484 0.565884C27.4484 0.565884 27.4484 0.565884 27.4423 0.565884C27.4423 0.565884 27.4301 0.571968 27.4301 0.578053C27.4301 0.578053 27.4301 0.578053 27.4241 0.578053C27.418 0.584138 27.4058 0.590223 27.3997 0.596308C27.3997 0.596308 27.3997 0.596308 27.3936 0.596308C27.3936 0.596308 27.3815 0.602392 27.3815 0.608477C27.3815 0.608477 27.3815 0.608477 27.3754 0.608477C27.3693 0.614562 27.3571 0.620647 27.351 0.626731C27.351 0.626731 27.351 0.626731 27.345 0.626731C27.345 0.626731 27.3328 0.632816 27.3328 0.638901C27.3328 0.638901 27.3328 0.638901 27.3267 0.644986C27.3206 0.65107 27.3084 0.657155 27.3024 0.669325C27.3024 0.669325 27.3024 0.669325 27.2963 0.669325C27.2963 0.669325 27.2902 0.67541 27.2841 0.681494C27.2841 0.681494 27.2841 0.681494 27.278 0.687579C27.2719 0.693664 27.2598 0.705833 27.2537 0.711918C27.2537 0.711918 27.2476 0.718003 27.2415 0.724088H27.2354C27.2354 0.724088 27.2293 0.742342 27.2233 0.742342C27.2233 0.742342 27.2233 0.742342 27.2172 0.748427C27.2111 0.754512 27.205 0.760596 27.1989 0.766681H27.1928C27.1928 0.766681 27.1868 0.784935 27.1807 0.784935C27.1807 0.784935 27.1807 0.784935 27.1746 0.79102C27.1685 0.797105 27.1624 0.80319 27.1563 0.809275C27.1563 0.809275 27.1563 0.809275 27.1502 0.815359C27.1502 0.815359 27.1442 0.821444 27.1381 0.827529C27.1381 0.827529 27.1381 0.833614 27.132 0.839698C27.132 0.845783 27.1198 0.851868 27.1137 0.857953C27.1137 0.857953 27.1137 0.864037 27.1077 0.870122C27.1077 0.870122 27.1016 0.876207 27.0955 0.882292C27.0955 0.882292 27.0955 0.888377 27.0894 0.894461C27.0894 0.900546 27.0772 0.906631 27.0711 0.912716C27.0711 0.912716 27.0711 0.9188 27.0651 0.924885C27.0651 0.924885 27.059 0.93097 27.0529 0.937055C27.0529 0.937055 27.0529 0.943139 27.0468 0.949224C27.0468 0.955309 27.0346 0.961394 27.0285 0.967479C27.0285 0.967479 27.0225 0.973563 27.0164 0.979648C27.0164 0.979648 27.0103 0.985733 27.0042 0.991818C27.0042 0.991818 27.0042 0.997902 26.9981 1.00399C26.9981 1.00399 26.992 1.01007 26.986 1.01616C26.986 1.01616 26.9738 1.02833 26.9738 1.03441L26.9616 1.04658C26.9616 1.04658 26.9616 1.05267 26.9555 1.05875C26.9555 1.05875 26.9494 1.06483 26.9434 1.07092C26.9434 1.077 26.9312 1.08309 26.9312 1.08917C26.9312 1.08917 26.9312 1.09526 26.9251 1.10134C26.9251 1.10134 26.9251 1.10743 26.919 1.11351C26.919 1.11351 26.919 1.1196 26.9129 1.12568C26.9129 1.12568 26.9069 1.13785 26.9008 1.14394C26.9008 1.14394 26.8947 1.15611 26.8886 1.16219C26.8886 1.16219 26.8886 1.16828 26.8825 1.17436C26.8825 1.17436 26.8825 1.18045 26.8764 1.18653C26.8764 1.18653 26.8703 1.1987 26.8643 1.1987C26.8643 1.20478 26.8582 1.21087 26.8521 1.21695C26.8521 1.21695 26.8521 1.22304 26.846 1.22912C26.846 1.22912 26.846 1.23521 26.8399 1.24129C26.8399 1.24129 26.8399 1.24738 26.8338 1.25346C26.8338 1.25955 26.8278 1.26563 26.8217 1.27172C26.8217 1.27172 26.8217 1.28389 26.8156 1.28389C26.8156 1.28389 26.8156 1.28997 26.8095 1.29606V1.30823C26.8095 1.30823 26.7973 1.3204 26.7912 1.32648C26.7912 1.32648 26.7852 1.33865 26.7791 1.34473C26.7791 1.34473 26.7791 1.35082 26.773 1.3569V1.36907C26.773 1.36907 26.7608 1.37516 26.7608 1.38124C26.7608 1.38733 26.7547 1.39341 26.7487 1.3995C26.7487 1.3995 26.7487 1.40558 26.7426 1.41167C26.7426 1.41167 26.7426 1.41775 26.7365 1.42384C26.7365 1.42384 26.7365 1.42992 26.7304 1.43601C26.7304 1.44209 26.7243 1.44818 26.7182 1.46035C26.7182 1.46035 26.7182 1.46643 26.7121 1.47251C26.7121 1.47251 26.7121 1.48468 26.7061 1.48468C26.7061 1.48468 26.7061 1.49077 26.7 1.49685C26.7 1.50294 26.6939 1.50902 26.6878 1.52119L23.11 7.72766L33.3932 25.5682C33.6184 25.9211 33.7705 26.3227 33.8252 26.7608C33.8435 26.9129 33.8496 27.059 33.8435 27.2111C33.8131 28.063 33.4176 28.8175 32.7969 29.3225C32.3771 29.6693 31.8538 29.8945 31.2636 29.9492C31.2636 29.9492 31.2575 29.9492 31.2514 29.9492C31.1784 29.9553 31.1053 29.9614 31.0323 29.9614H31.0202C31.0202 29.9614 31.0141 29.9614 31.008 29.9614H43.2749C43.2749 29.9614 43.281 29.9614 43.2871 29.9614H43.2992C43.3722 29.9614 43.4453 29.9614 43.5183 29.9492C43.5183 29.9492 43.5244 29.9492 43.5304 29.9492C44.1207 29.8945 44.644 29.6633 45.0638 29.3225C45.6784 28.8175 46.08 28.063 46.1104 27.2111C46.1104 27.0651 46.1104 26.9129 46.0921 26.7608L45.9948 26.846Z" fill="#D1FF79"/><path d="M30.9289 30.0405C31.0019 30.0405 31.0749 30.0405 31.1479 30.0283C31.1479 30.0283 31.154 30.0283 31.1601 30.0283C31.7503 29.9736 32.2736 29.7424 32.6935 29.4016C33.308 28.8966 33.7096 28.1421 33.7401 27.2902C33.7401 27.1442 33.7401 26.992 33.7218 26.8399C33.667 26.4018 33.5149 26.0002 33.2898 25.6473L23.0065 7.80676L12.7233 25.6412C12.4799 26.0124 12.3277 26.4444 12.2791 26.9129C12.2791 26.9129 12.2791 26.919 12.2791 26.9251C12.2791 26.9251 12.2791 26.9373 12.2791 26.9434C12.273 27.0286 12.2669 27.1137 12.2669 27.1928C12.2669 27.1928 12.2669 27.1989 12.2669 27.205V27.2172C12.273 28.1056 12.6867 28.8966 13.3317 29.4138C13.7394 29.7424 14.2444 29.9675 14.8164 30.0223C14.8225 30.0223 14.8347 30.0223 14.8408 30.0223C14.9199 30.0283 14.999 30.0344 15.0781 30.0344C15.0781 30.0344 15.0902 30.0344 15.0963 30.0344C15.0963 30.0344 15.0963 30.0344 15.1024 30.0344H30.8863C30.8863 30.0344 30.8924 30.0344 30.8985 30.0344H30.9106L30.9289 30.0405Z" fill="#3D473C"/></svg>